<svg xmlns="http://www.w3.org/2000/svg" viewBox="0 0 512 512" width="512" height="512">
  <defs>
    <linearGradient id="bg" x1="0" y1="0" x2="1" y2="1">
      <stop offset="0" stop-color="#1a3a5c"/>
      <stop offset="1" stop-color="#2d6a9f"/>
    </linearGradient>
  </defs>
  <rect width="512" height="512" rx="112" fill="url(#bg)"/>
  <!-- منطقة آمنة للأيقونة القابلة للقناع: العناصر داخل ~80% وسط -->
  <g fill="#ffffff">
    <!-- برج يمين -->
    <rect x="150" y="196" width="80" height="180" rx="6"/>
    <!-- برج أوسط أعلى -->
    <rect x="238" y="150" width="86" height="226" rx="6"/>
    <!-- برج يسار -->
    <rect x="332" y="228" width="70" height="148" rx="6"/>
  </g>
  <!-- نوافذ -->
  <g fill="#2d6a9f">
    <rect x="166" y="216" width="20" height="20" rx="3"/><rect x="194" y="216" width="20" height="20" rx="3"/>
    <rect x="166" y="252" width="20" height="20" rx="3"/><rect x="194" y="252" width="20" height="20" rx="3"/>
    <rect x="166" y="288" width="20" height="20" rx="3"/><rect x="194" y="288" width="20" height="20" rx="3"/>
    <rect x="256" y="176" width="22" height="22" rx="3"/><rect x="286" y="176" width="22" height="22" rx="3"/>
    <rect x="256" y="214" width="22" height="22" rx="3"/><rect x="286" y="214" width="22" height="22" rx="3"/>
    <rect x="256" y="252" width="22" height="22" rx="3"/><rect x="286" y="252" width="22" height="22" rx="3"/>
    <rect x="256" y="290" width="22" height="22" rx="3"/><rect x="286" y="290" width="22" height="22" rx="3"/>
    <rect x="346" y="248" width="18" height="18" rx="3"/><rect x="370" y="248" width="18" height="18" rx="3"/>
    <rect x="346" y="282" width="18" height="18" rx="3"/><rect x="370" y="282" width="18" height="18" rx="3"/>
  </g>
  <!-- قاعدة أرضية -->
  <rect x="132" y="376" width="288" height="20" rx="10" fill="#e08a1e"/>
  <!-- خطاف رافعة (لمسة إنشائية) -->
  <g stroke="#e08a1e" stroke-width="10" stroke-linecap="round" fill="none">
    <line x1="281" y1="118" x2="281" y2="150"/>
  </g>
  <circle cx="281" cy="112" r="12" fill="#e08a1e"/>
</svg>
